<svg width="281" height="64" viewBox="0 0 281 64" fill="none" xmlns="http://www.w3.org/2000/svg">
<path d="M4.12 30.2C3.46133 30.2 2.82 30.0873 2.196 29.862C1.572 29.654 1.03467 29.342 0.584 28.926L1.65 27.054C1.99667 27.3833 2.378 27.6347 2.794 27.808C3.21 27.9813 3.652 28.068 4.12 28.068C4.72667 28.068 5.22933 27.912 5.628 27.6C6.02667 27.288 6.39933 26.7333 6.746 25.936L7.604 24.038L7.864 23.726L13.272 11.22H15.716L9.034 26.378C8.63533 27.3487 8.18467 28.1113 7.682 28.666C7.19667 29.2207 6.65933 29.6107 6.07 29.836C5.48067 30.0787 4.83067 30.2 4.12 30.2ZM7.396 25.442L1.104 11.22H3.704L9.06 23.492L7.396 25.442ZM15.8004 25L21.7284 17.304L21.7024 18.578L16.0604 11.22H18.8424L23.1584 16.888H22.0924L26.4084 11.22H29.1384L23.4184 18.63L23.4444 17.304L29.4244 25H26.5904L22.0404 18.968L23.0544 19.124L18.5824 25H15.8004ZM37.9958 25.156C36.6091 25.156 35.3784 24.8527 34.3038 24.246C33.2291 23.6393 32.3798 22.8073 31.7558 21.75C31.1318 20.6753 30.8198 19.462 30.8198 18.11C30.8198 16.7407 31.1318 15.5273 31.7558 14.47C32.3798 13.4127 33.2291 12.5893 34.3038 12C35.3784 11.3933 36.6091 11.09 37.9958 11.09C39.3651 11.09 40.5871 11.3933 41.6618 12C42.7538 12.5893 43.6031 13.4127 44.2098 14.47C44.8338 15.51 45.1458 16.7233 45.1458 18.11C45.1458 19.4793 44.8338 20.6927 44.2098 21.75C43.6031 22.8073 42.7538 23.6393 41.6618 24.246C40.5871 24.8527 39.3651 25.156 37.9958 25.156ZM37.9958 22.972C38.8798 22.972 39.6684 22.7727 40.3618 22.374C41.0724 21.9753 41.6271 21.412 42.0258 20.684C42.4244 19.9387 42.6238 19.0807 42.6238 18.11C42.6238 17.122 42.4244 16.2727 42.0258 15.562C41.6271 14.834 41.0724 14.2707 40.3618 13.872C39.6684 13.4733 38.8798 13.274 37.9958 13.274C37.1118 13.274 36.3231 13.4733 35.6298 13.872C34.9364 14.2707 34.3818 14.834 33.9658 15.562C33.5498 16.2727 33.3418 17.122 33.3418 18.11C33.3418 19.0807 33.5498 19.9387 33.9658 20.684C34.3818 21.412 34.9364 21.9753 35.6298 22.374C36.3231 22.7727 37.1118 22.972 37.9958 22.972ZM55.256 25.156C53.852 25.156 52.5954 24.8527 51.486 24.246C50.394 23.6393 49.536 22.8073 48.912 21.75C48.288 20.6927 47.976 19.4793 47.976 18.11C47.976 16.7407 48.288 15.5273 48.912 14.47C49.536 13.4127 50.394 12.5893 51.486 12C52.5954 11.3933 53.852 11.09 55.256 11.09C56.504 11.09 57.6134 11.3413 58.584 11.844C59.572 12.3293 60.3347 13.0573 60.872 14.028L58.974 15.25C58.5234 14.574 57.9687 14.08 57.31 13.768C56.6687 13.4387 55.9754 13.274 55.23 13.274C54.3287 13.274 53.5227 13.4733 52.812 13.872C52.1014 14.2707 51.538 14.834 51.122 15.562C50.706 16.2727 50.498 17.122 50.498 18.11C50.498 19.098 50.706 19.956 51.122 20.684C51.538 21.412 52.1014 21.9753 52.812 22.374C53.5227 22.7727 54.3287 22.972 55.23 22.972C55.9754 22.972 56.6687 22.816 57.31 22.504C57.9687 22.1747 58.5234 21.672 58.974 20.996L60.872 22.192C60.3347 23.1453 59.572 23.882 58.584 24.402C57.6134 24.9047 56.504 25.156 55.256 25.156ZM64.6035 25V11.22H67.0995V21.256L75.5495 11.22H77.8115V25H75.3155V14.964L66.8915 25H64.6035ZM89.5263 25.208C88.3823 25.208 87.3683 25.026 86.4843 24.662C85.6176 24.298 84.8723 23.7607 84.2483 23.05C83.6243 22.322 83.1476 21.412 82.8183 20.32C82.5063 19.2107 82.3503 17.9107 82.3503 16.42C82.3503 15.2413 82.4543 14.184 82.6623 13.248C82.8703 12.312 83.1649 11.48 83.5463 10.752C83.9449 10.024 84.4303 9.39133 85.0023 8.854C85.5916 8.31667 86.2503 7.87467 86.9783 7.528C87.7236 7.164 88.5383 6.88667 89.4223 6.696L95.7143 5.292L96.0783 7.606L90.2803 8.854C89.9336 8.92333 89.5176 9.02733 89.0323 9.166C88.5469 9.30467 88.0529 9.52133 87.5503 9.816C87.0476 10.0933 86.5796 10.4833 86.1463 10.986C85.7129 11.4887 85.3663 12.1473 85.1063 12.962C84.8463 13.7593 84.7163 14.7473 84.7163 15.926C84.7163 16.2553 84.7249 16.5067 84.7423 16.68C84.7596 16.8533 84.7769 17.0267 84.7943 17.2C84.8289 17.3733 84.8549 17.6333 84.8723 17.98L83.8323 16.914C84.1096 15.9607 84.5516 15.1287 85.1583 14.418C85.7649 13.7073 86.4929 13.1613 87.3423 12.78C88.2089 12.3813 89.1536 12.182 90.1763 12.182C91.4589 12.182 92.5943 12.4593 93.5823 13.014C94.5876 13.5687 95.3763 14.3313 95.9483 15.302C96.5203 16.2727 96.8063 17.382 96.8063 18.63C96.8063 19.8953 96.5029 21.0307 95.8963 22.036C95.3069 23.024 94.4663 23.804 93.3743 24.376C92.2823 24.9307 90.9996 25.208 89.5263 25.208ZM89.7603 23.128C90.6443 23.128 91.4243 22.9373 92.1003 22.556C92.7763 22.1573 93.3049 21.6287 93.6863 20.97C94.0676 20.294 94.2583 19.54 94.2583 18.708C94.2583 17.876 94.0676 17.1393 93.6863 16.498C93.3049 15.8567 92.7763 15.354 92.1003 14.99C91.4243 14.6087 90.6269 14.418 89.7083 14.418C88.8416 14.418 88.0616 14.6 87.3683 14.964C86.6749 15.3107 86.1376 15.8047 85.7563 16.446C85.3749 17.07 85.1843 17.798 85.1843 18.63C85.1843 19.462 85.3749 20.2247 85.7563 20.918C86.1549 21.594 86.6923 22.1313 87.3683 22.53C88.0616 22.9287 88.8589 23.128 89.7603 23.128ZM100.871 25V11.22H103.367V21.256L111.817 11.22H114.079V25H111.583V14.964L103.159 25H100.871Z" fill="#A774FF"/>
<path d="M11.868 57V54.088L11.738 53.542V48.576C11.738 47.5187 11.426 46.704 10.802 46.132C10.1953 45.5427 9.27667 45.248 8.046 45.248C7.23133 45.248 6.434 45.3867 5.654 45.664C4.874 45.924 4.21533 46.2793 3.678 46.73L2.638 44.858C3.34867 44.286 4.198 43.8527 5.186 43.558C6.19133 43.246 7.24 43.09 8.332 43.09C10.2213 43.09 11.6773 43.5493 12.7 44.468C13.7227 45.3867 14.234 46.7907 14.234 48.68V57H11.868ZM7.344 57.156C6.32133 57.156 5.42 56.9827 4.64 56.636C3.87733 56.2893 3.288 55.8127 2.872 55.206C2.456 54.582 2.248 53.88 2.248 53.1C2.248 52.3547 2.42133 51.6787 2.768 51.072C3.132 50.4653 3.71267 49.98 4.51 49.616C5.32467 49.252 6.41667 49.07 7.786 49.07H12.154V50.864H7.89C6.642 50.864 5.80133 51.072 5.368 51.488C4.93467 51.904 4.718 52.4067 4.718 52.996C4.718 53.672 4.98667 54.218 5.524 54.634C6.06133 55.0327 6.80667 55.232 7.76 55.232C8.696 55.232 9.51067 55.024 10.204 54.608C10.9147 54.192 11.426 53.5853 11.738 52.788L12.232 54.504C11.9027 55.3187 11.322 55.9687 10.49 56.454C9.658 56.922 8.60933 57.156 7.344 57.156ZM19.2285 57V43.22H21.7245V49.07H29.5765V43.22H32.0725V57H29.5765V51.228H21.7245V57H19.2285Z" fill="#A774FF"/>
</svg>
