<svg width="16" height="16" viewBox="0 0 16 16" fill="none" xmlns="http://www.w3.org/2000/svg">
<path fill-rule="evenodd" clip-rule="evenodd" d="M3.75736 3.75736C4.88258 2.63214 6.4087 2 8 2C9.5913 2 11.1174 2.63214 12.2426 3.75736C13.3679 4.88258 14 6.4087 14 8V8.75H12.5C11.9033 8.75 11.331 8.98705 10.909 9.40901C10.4871 9.83097 10.25 10.4033 10.25 11V13.25C10.25 13.8467 10.4871 14.419 10.909 14.841C11.331 15.2629 11.9033 15.5 12.5 15.5H13.25C13.8467 15.5 14.419 15.2629 14.841 14.841C15.2629 14.419 15.5 13.8467 15.5 13.25V12.5V9.5V8C15.5 6.01088 14.7098 4.10322 13.3033 2.6967C11.8968 1.29018 9.98912 0.5 8 0.5C6.01088 0.5 4.10322 1.29018 2.6967 2.6967C1.29018 4.10322 0.5 6.01088 0.5 8V9.5C0.5 9.08579 0.835786 8.75 1.25 8.75H2V10.25H3.5C3.69891 10.25 3.88968 10.329 4.03033 10.4697C4.17098 10.6103 4.25 10.8011 4.25 11V13.25C4.25 13.4489 4.17098 13.6397 4.03033 13.7803C3.88968 13.921 3.69891 14 3.5 14H2.75C2.55109 14 2.36032 13.921 2.21967 13.7803C2.07902 13.6397 2 13.4489 2 13.25V12.5C2 12.9142 1.66421 13.25 1.25 13.25C0.835786 13.25 0.5 12.9142 0.5 12.5V13.25C0.5 13.8467 0.737053 14.419 1.15901 14.841C1.58097 15.2629 2.15326 15.5 2.75 15.5H3.5C4.09674 15.5 4.66903 15.2629 5.09099 14.841C5.51295 14.419 5.75 13.8467 5.75 13.25V11C5.75 10.4033 5.51295 9.83097 5.09099 9.40901C4.66903 8.98705 4.09674 8.75 3.5 8.75H2V8C2 6.4087 2.63214 4.88258 3.75736 3.75736ZM14 10.25H12.5C12.3011 10.25 12.1103 10.329 11.9697 10.4697C11.829 10.6103 11.75 10.8011 11.75 11V13.25C11.75 13.4489 11.829 13.6397 11.9697 13.7803C12.1103 13.921 12.3011 14 12.5 14H13.25C13.4489 14 13.6397 13.921 13.7803 13.7803C13.921 13.6397 14 13.4489 14 13.25V12.5V10.25Z" fill="#4D89FF"/>
<path d="M1.25 13.25C1.66421 13.25 2 12.9142 2 12.5V10.25V8.75H1.25C0.835786 8.75 0.5 9.08579 0.5 9.5V12.5C0.5 12.9142 0.835786 13.25 1.25 13.25Z" fill="#4D89FF"/>
</svg>
