<svg width="173" height="120" viewBox="0 0 173 120" fill="none" xmlns="http://www.w3.org/2000/svg">
<path d="M39.4307 51.772L1.02961 108.721C-3.60808 115.932 8.63583 123.883 13.6445 117.411L42.9555 73.775C44.2541 71.7411 45.5528 71.7411 46.8514 73.5901L77.6465 118.336C79.3161 120.555 84.696 120.555 86.5511 118.336L153.336 36.2404C154.078 35.5008 154.634 35.131 155.747 35.8706L165.023 43.4515L173 0L131.26 14.9769L140.35 22.7427C142.205 24.2219 142.39 25.1464 141.463 26.2558L85.0669 96.1479C83.5829 97.812 81.9133 97.812 80.6146 96.1479L50.5616 51.4022C48.15 47.8891 41.657 48.074 39.4307 51.772Z" fill="#A774FF"/>
<path d="M151.11 117.411L130.703 86.9029C126.891 80.6163 138.207 73.5901 142.762 78.7674L163.168 108.351C167.518 115.378 155.274 122.404 151.11 117.411Z" fill="#A774FF"/>
</svg>
