<svg width="63" height="44" viewBox="0 0 63 44" fill="none" xmlns="http://www.w3.org/2000/svg">
<path d="M14.3592 18.9831L0.374943 39.8644C-1.31392 42.5085 3.14484 45.4237 4.96879 43.0508L15.6427 27.0508C16.1156 26.3051 16.5886 26.3051 17.0615 26.9831L28.2759 43.3898C28.8839 44.2034 30.843 44.2034 31.5186 43.3898L55.8389 13.2881C56.1092 13.0169 56.3119 12.8814 56.7172 13.1525L60.0951 15.9322L63 0L47.7998 5.49153L51.11 8.33898C51.7856 8.88136 51.8532 9.22034 51.5154 9.62712L30.9781 35.2542C30.4377 35.8644 29.8297 35.8644 29.3567 35.2542L18.4126 18.8475C17.5344 17.5593 15.1699 17.6271 14.3592 18.9831Z" fill="#A774FF"/>
<path d="M55.0284 43.0508L47.5971 31.8644C46.2088 29.5593 50.3297 26.983 51.9883 28.8814L59.4196 39.7288C61.0037 42.3051 56.5449 44.8814 55.0284 43.0508Z" fill="#A774FF"/>
</svg>
